<svg width="329" height="60" viewBox="0 0 329 60" fill="none" xmlns="http://www.w3.org/2000/svg">
<g clip-path="url(#clip0_71_153)">
<path d="M189.929 13.3967H193.112L191.942 10.7929C191.874 10.6267 191.804 10.4357 191.731 10.2198C191.659 10.004 191.586 9.76362 191.513 9.49865C191.45 9.74777 191.384 9.98035 191.314 10.1964C191.243 10.4124 191.172 10.6113 191.099 10.7929L189.929 13.3967ZM195.063 17.8807L193.768 14.9416H189.242L187.916 17.8807H185.965L191.497 6.01538L197.022 17.8807H195.063ZM200.479 15.5966L201.962 14.9104C202.074 15.3776 202.348 15.7903 202.734 16.0759C203.158 16.3581 203.661 16.4987 204.17 16.4774C204.652 16.5027 205.125 16.3375 205.485 16.0175C205.649 15.8583 205.778 15.6662 205.862 15.4539C205.946 15.2416 205.984 15.0138 205.973 14.7857C205.973 14.1154 205.416 13.5177 204.303 12.9928C204.147 12.9149 204.028 12.8583 203.944 12.8229C202.685 12.2097 201.846 11.6548 201.428 11.1584C201.004 10.648 200.781 10.0009 200.8 9.33798C200.785 8.91502 200.861 8.49376 201.025 8.10339C201.189 7.71303 201.435 7.3629 201.748 7.07728C202.434 6.48064 203.324 6.17082 204.233 6.21207C204.969 6.18644 205.698 6.35443 206.348 6.69919C206.899 7.00519 207.318 7.5028 207.526 8.0974L206.074 8.84473C205.886 8.52842 205.629 8.25911 205.321 8.05731C205.037 7.88812 204.711 7.80174 204.381 7.80797C203.949 7.78491 203.525 7.9239 203.191 8.19761C203.044 8.32818 202.929 8.48961 202.852 8.67025C202.776 8.85089 202.74 9.04624 202.749 9.24218C202.749 9.92815 203.394 10.5675 204.684 11.1601C204.783 11.207 204.861 11.2433 204.918 11.2692C206.046 11.7889 206.822 12.297 207.243 12.7934C207.674 13.3155 207.9 13.977 207.877 14.6536C207.9 15.131 207.821 15.6078 207.644 16.0522C207.468 16.4965 207.199 16.8981 206.855 17.2302C206.094 17.8966 205.102 18.2397 204.091 18.1865C203.243 18.2225 202.405 17.9876 201.7 17.5159C201.067 17.0513 200.631 16.3664 200.479 15.5966ZM212.286 15.5966L213.769 14.9104C213.881 15.3776 214.155 15.7903 214.541 16.0759C214.965 16.3581 215.468 16.4987 215.977 16.4774C216.459 16.5026 216.931 16.3374 217.292 16.0175C217.456 15.8583 217.584 15.6662 217.668 15.4539C217.752 15.2416 217.79 15.0138 217.78 14.7857C217.78 14.1154 217.223 13.5177 216.11 12.9928C215.954 12.9149 215.834 12.8583 215.751 12.8229C214.492 12.2097 213.653 11.6548 213.235 11.1584C212.811 10.648 212.588 10.0009 212.607 9.33798C212.591 8.91502 212.668 8.49376 212.832 8.10339C212.995 7.71303 213.242 7.3629 213.555 7.07728C214.241 6.48064 215.131 6.17082 216.04 6.21207C216.775 6.18644 217.504 6.35443 218.154 6.69919C218.705 7.00513 219.125 7.50274 219.333 8.0974L217.881 8.84473C217.693 8.52843 217.436 8.25912 217.128 8.05731C216.844 7.88812 216.518 7.80174 216.188 7.80797C215.756 7.78491 215.332 7.9239 214.998 8.19761C214.851 8.32818 214.736 8.48961 214.659 8.67025C214.583 8.85089 214.547 9.04624 214.556 9.24218C214.556 9.92815 215.201 10.5675 216.491 11.1601C216.59 11.207 216.668 11.2433 216.725 11.2692C217.854 11.7889 218.629 12.297 219.05 12.7934C219.481 13.3155 219.707 13.977 219.684 14.6536C219.707 15.131 219.628 15.6078 219.451 16.0522C219.275 16.4965 219.006 16.8981 218.662 17.2302C217.901 17.8964 216.91 18.2395 215.899 18.1865C215.051 18.2225 214.213 17.9876 213.507 17.5159C212.874 17.0515 212.438 16.3666 212.286 15.5966H212.286ZM224.749 17.8807V6.46684H231.123V8.04168H226.606V10.9026H231.123V12.5332H226.606V16.2203H231.123V17.8807H224.749ZM239.981 8.04236V17.8807H238.124V8.04236H235.089V6.46684H243.001V8.04168L239.981 8.04236ZM196.833 31.2676C196.813 31.1793 196.779 30.935 196.731 30.5348C196.69 30.2022 196.653 29.9267 196.622 29.7084C196.574 29.9726 196.508 30.2331 196.423 30.488C196.333 30.7597 196.225 31.0254 196.1 31.2832L193.111 37.3638L190.122 31.1582C189.997 30.9034 189.889 30.6566 189.799 30.4177C189.708 30.1787 189.628 29.9423 189.561 29.7084C189.555 29.9599 189.537 30.2109 189.505 30.4605C189.468 30.737 189.417 31.0116 189.352 31.2829L188.126 36.9039H186.417L189.117 25.0073L192.488 32.2106C192.54 32.3238 192.619 32.5135 192.726 32.7796C192.833 33.0457 192.962 33.3731 193.112 33.762C193.261 33.3372 193.433 32.9208 193.627 32.5146C193.69 32.3787 193.737 32.2748 193.768 32.2028L197.061 25.0073L199.823 36.9039H198.099L196.833 31.2676ZM206.752 32.4226H209.936L208.765 29.8188C208.697 29.6525 208.627 29.4615 208.554 29.2457C208.482 29.0299 208.409 28.7895 208.336 28.5245C208.273 28.7736 208.207 29.0062 208.137 29.2223C208.067 29.4383 207.995 29.6371 207.922 29.8188L206.752 32.4226ZM211.888 36.9039L210.592 33.9648H206.067L204.74 36.9039H202.789L208.322 25.0385L213.846 36.9039H211.888ZM217.959 36.9039V25.0385L225.216 32.0159C225.414 32.2134 225.614 32.4239 225.817 32.6474C226.02 32.871 226.233 33.123 226.457 33.4036V25.49H228.174V37.3482L220.768 30.2458C220.571 30.0535 220.38 29.8508 220.195 29.6377C220.01 29.4246 219.835 29.2011 219.668 28.9671V36.9039H217.959ZM236.243 32.4198H239.426L238.256 29.816C238.188 29.6498 238.118 29.4588 238.045 29.243C237.973 29.0272 237.9 28.7868 237.827 28.5218C237.764 28.7709 237.698 29.0035 237.628 29.2195C237.557 29.4356 237.486 29.6344 237.413 29.816L236.243 32.4198ZM241.377 36.9039L240.082 33.9648H235.556L234.23 36.9039H232.279L237.811 25.0385L243.336 36.9039H241.377ZM253.496 31.057H258.022C258.022 31.1349 258.024 31.244 258.029 31.3844C258.045 31.7533 258.053 32.0025 258.053 32.1318C258.053 33.7376 257.592 34.985 256.672 35.8739C255.751 36.7628 254.453 37.208 252.778 37.2096C251.925 37.2237 251.077 37.0838 250.274 36.7965C249.548 36.526 248.89 36.1003 248.346 35.5491C247.803 34.9942 247.379 34.3335 247.102 33.6081C246.81 32.8469 246.663 32.0379 246.669 31.2227C246.66 30.4066 246.811 29.5965 247.111 28.8374C247.405 28.1101 247.85 27.4537 248.418 26.912C248.977 26.3647 249.644 25.9399 250.376 25.6646C251.144 25.3754 251.959 25.23 252.78 25.2359C253.61 25.2218 254.434 25.3895 255.194 25.7271C255.933 26.0777 256.583 26.5923 257.094 27.2316L255.736 28.2528C255.38 27.8283 254.935 27.4876 254.433 27.2551C253.921 27.0311 253.368 26.9194 252.81 26.9276C252.25 26.9068 251.692 27.0016 251.17 27.2062C250.648 27.4108 250.174 27.7207 249.778 28.1165C249.384 28.526 249.077 29.011 248.875 29.5422C248.673 30.0735 248.581 30.64 248.604 31.2078C248.58 31.7827 248.671 32.3565 248.873 32.8955C249.075 33.4344 249.383 33.9275 249.778 34.3456C250.175 34.7466 250.65 35.0609 251.175 35.2682C251.7 35.4756 252.262 35.5716 252.825 35.5502C253.721 35.6013 254.607 35.3395 255.33 34.8096C255.63 34.5677 255.868 34.2591 256.027 33.9084C256.186 33.5578 256.26 33.1749 256.243 32.7904V32.6237H253.496V31.057ZM263.04 36.9039V25.49H269.416V27.0648H264.898V29.9264H269.416V31.557H264.898V35.2434H269.416V36.9039H263.04ZM283.899 31.2676C283.878 31.1793 283.844 30.935 283.797 30.5348C283.755 30.2022 283.719 29.9267 283.688 29.7084C283.64 29.9726 283.574 30.2331 283.489 30.488C283.398 30.7597 283.29 31.0254 283.165 31.2832L280.177 37.3638L277.188 31.1582C277.063 30.9034 276.955 30.6566 276.864 30.4177C276.773 30.1787 276.694 29.9423 276.626 29.7084C276.62 29.96 276.6 30.2112 276.568 30.4608C276.531 30.7374 276.48 31.0119 276.415 31.2832L275.191 36.9039H273.482L276.181 25.0073L279.552 32.2106C279.604 32.3238 279.684 32.5135 279.79 32.7796C279.897 33.0457 280.026 33.3731 280.177 33.762C280.326 33.3372 280.498 32.9208 280.692 32.5146C280.754 32.3787 280.801 32.2748 280.832 32.2028L284.125 25.0073L286.887 36.9039H285.163L283.899 31.2676ZM291.407 36.9039V25.49H297.783V27.0648H293.264V29.9264H297.782V31.557H293.264V35.2434H297.782V36.9039H291.407ZM302.949 36.9039V25.0385L310.206 32.0159C310.404 32.2134 310.604 32.4239 310.807 32.6474C311.01 32.871 311.223 33.123 311.447 33.4036V25.49H313.163V37.3482L305.756 30.2458C305.558 30.0535 305.367 29.8508 305.182 29.6377C304.998 29.4246 304.822 29.2011 304.656 28.9671V36.9039H302.949ZM322.512 27.0655V36.9039H320.655V27.0655H317.619V25.49H325.531V27.0648L322.512 27.0655ZM196.686 47.2891C196.192 46.8613 195.629 46.5212 195.02 46.2836C194.431 46.0594 193.805 45.9457 193.175 45.9483C192.611 45.9268 192.05 46.0223 191.525 46.229C191.001 46.4356 190.525 46.7489 190.128 47.1488C189.376 47.9973 188.959 49.0895 188.953 50.2223C188.948 51.3552 189.354 52.4515 190.096 53.3076C190.465 53.6998 190.912 54.0096 191.409 54.2166C191.906 54.4235 192.441 54.5228 192.98 54.5081C193.64 54.511 194.296 54.3893 194.911 54.1494C195.555 53.8904 196.15 53.524 196.671 53.0657V55.1627C196.175 55.5193 195.623 55.7907 195.038 55.9657C194.418 56.1471 193.773 56.2363 193.127 56.2307C192.299 56.2391 191.478 56.0937 190.704 55.802C189.973 55.5202 189.309 55.0913 188.752 54.5419C188.195 53.9926 187.757 53.3346 187.465 52.6088C186.867 51.0908 186.867 49.4027 187.465 47.8846C187.764 47.1588 188.205 46.5003 188.763 45.9485C189.322 45.3967 189.985 44.9629 190.715 44.6728C191.474 44.3796 192.282 44.2328 193.095 44.24C193.747 44.237 194.394 44.3357 195.015 44.5325C195.646 44.738 196.243 45.0356 196.786 45.4157L196.686 47.2891ZM211.802 50.2445C211.804 49.681 211.697 49.1223 211.486 48.5997C211.276 48.0822 210.968 47.6107 210.576 47.212C210.196 46.8157 209.74 46.5008 209.234 46.2863C208.728 46.0719 208.184 45.9625 207.635 45.9647C206.803 45.9699 205.991 46.2223 205.304 46.6897C204.616 47.1572 204.083 47.8185 203.772 48.5895C203.563 49.1153 203.457 49.6764 203.46 50.2421C203.457 50.8029 203.563 51.3588 203.772 51.8792C203.98 52.3939 204.288 52.8628 204.677 53.259C205.06 53.6568 205.519 53.9725 206.028 54.187C206.536 54.4014 207.083 54.5101 207.635 54.5064C208.181 54.5086 208.721 54.3998 209.223 54.1867C209.731 53.9695 210.191 53.6543 210.577 53.259C211.367 52.4535 211.807 51.3695 211.801 50.2421L211.802 50.2445ZM213.737 50.2445C213.742 51.0344 213.587 51.8172 213.28 52.545C212.973 53.2728 212.52 53.9304 211.95 54.4775C211.376 55.0348 210.701 55.4768 209.96 55.7796C209.222 56.0809 208.432 56.2345 207.635 56.2317C206.828 56.2346 206.029 56.0797 205.282 55.7755C204.544 55.4769 203.872 55.0358 203.304 54.4775C202.736 53.9321 202.285 53.277 201.978 52.5521C201.513 51.4528 201.391 50.2391 201.628 49.0694C201.864 47.8998 202.448 46.8286 203.304 45.9959C203.873 45.4383 204.546 44.9985 205.286 44.7017C206.791 44.1091 208.466 44.1091 209.972 44.7017C210.71 44.9988 211.382 45.4386 211.95 45.9957C212.517 46.5529 212.969 47.2165 213.28 47.9485C213.585 48.6753 213.74 49.4559 213.737 50.2438L213.737 50.2445ZM228.221 50.2914C228.2 50.2031 228.166 49.9588 228.119 49.5587C228.078 49.226 228.041 48.9505 228.01 48.7322C227.962 48.9964 227.896 49.2569 227.811 49.5118C227.721 49.7836 227.612 50.0492 227.487 50.307L224.499 56.3876L221.51 50.182C221.385 49.9272 221.277 49.6804 221.186 49.4415C221.095 49.2025 221.016 48.9661 220.948 48.7322C220.942 48.9835 220.921 49.2344 220.888 49.4836C220.852 49.7602 220.801 50.0347 220.736 50.306L219.512 55.927H217.803L220.503 44.0304L223.874 51.2337C223.926 51.347 224.005 51.5366 224.112 51.8027C224.219 52.0688 224.347 52.3963 224.498 52.7851C224.647 52.3604 224.819 51.944 225.013 51.5378C225.076 51.4019 225.122 51.2979 225.154 51.2259L228.447 44.0304L231.209 55.927H229.484L228.221 50.2914ZM237.586 49.2859H238.062C239.092 49.2859 239.779 49.1741 240.122 48.9506C240.303 48.8147 240.446 48.634 240.537 48.4263C240.627 48.2185 240.662 47.9909 240.637 47.7657C240.662 47.5223 240.625 47.2765 240.529 47.0514C240.432 46.8264 240.28 46.6295 240.087 46.4793C239.72 46.2302 239.045 46.1056 238.062 46.1056H237.586L237.586 49.2859ZM237.469 50.806V55.927H235.729V44.5131H238.538C239.153 44.495 239.768 44.5405 240.374 44.649C240.742 44.7292 241.091 44.8816 241.4 45.0974C241.77 45.3755 242.06 45.745 242.243 46.1695C242.45 46.637 242.555 47.1434 242.549 47.6547C242.554 48.1695 242.45 48.6796 242.243 49.1514C242.064 49.5789 241.773 49.9505 241.4 50.2272C241.092 50.4427 240.743 50.5938 240.374 50.6715C239.768 50.7771 239.153 50.8215 238.538 50.804H237.469V50.806ZM248.807 51.443H251.99L250.82 48.8392C250.752 48.673 250.682 48.4819 250.609 48.2661C250.537 48.0503 250.464 47.8099 250.391 47.5449C250.328 47.794 250.262 48.0266 250.192 48.2427C250.121 48.4587 250.05 48.6576 249.977 48.8392L248.807 51.443ZM253.941 55.927L252.646 52.9879H248.12L246.794 55.927H244.843L250.376 44.0617L255.899 55.927H253.941ZM260.013 55.927V44.0617L267.27 51.0391C267.467 51.2366 267.668 51.4471 267.87 51.6706C268.073 51.8941 268.287 52.1462 268.51 52.4267V44.5131H270.227V56.3706L262.822 49.2689C262.624 49.0766 262.433 48.8739 262.248 48.6608C262.064 48.4477 261.888 48.2242 261.722 47.9903V55.927H260.013ZM278.343 55.927V50.7038L274.496 44.5131H276.447L278.842 48.3877C278.899 48.4865 278.971 48.6163 279.057 48.7774C279.142 48.9384 279.23 49.1125 279.318 49.2998C279.391 49.1186 279.468 48.9471 279.548 48.7852C279.624 48.6323 279.709 48.484 279.802 48.3408L282.261 44.5131H284.118L280.185 50.7038V55.927H278.343ZM296.284 55.927V44.5131H298.141V55.927H296.284ZM303.846 55.927V44.0617L311.103 51.0391C311.301 51.2366 311.501 51.4471 311.704 51.6706C311.907 51.8941 312.12 52.1462 312.344 52.4267V44.5131H314.061V56.3706L306.656 49.2689C306.458 49.0766 306.267 48.8739 306.082 48.6608C305.897 48.4477 305.722 48.2242 305.555 47.9903V55.927H303.846ZM328.887 47.2891C328.394 46.8613 327.83 46.5212 327.221 46.2836C326.632 46.0594 326.007 45.9457 325.376 45.9483C324.813 45.9268 324.251 46.0223 323.726 46.229C323.202 46.4356 322.726 46.7489 322.329 47.1488C321.578 47.9973 321.16 49.0895 321.155 50.2223C321.149 51.3552 321.555 52.4515 322.298 53.3076C322.666 53.6998 323.114 54.0096 323.611 54.2166C324.108 54.4235 324.643 54.5228 325.181 54.5081C325.842 54.511 326.497 54.3893 327.112 54.1494C327.756 53.8904 328.351 53.524 328.872 53.0657V55.1627C328.376 55.5193 327.825 55.7907 327.24 55.9657C325.814 56.3684 324.297 56.3111 322.905 55.802C322.175 55.5202 321.511 55.0913 320.954 54.5419C320.397 53.9926 319.959 53.3346 319.667 52.6088C319.069 51.0908 319.069 49.4027 319.667 47.8846C319.965 47.1588 320.407 46.5003 320.965 45.9485C321.523 45.3967 322.187 44.9629 322.917 44.6728C323.676 44.3796 324.483 44.2328 325.297 44.24C325.948 44.237 326.596 44.3357 327.217 44.5325C327.847 44.738 328.444 45.0356 328.988 45.4157L328.887 47.2891Z" fill="#F2F2F2"/>
<path d="M91.4797 0.443434C91.4797 1.29268 91.482 2.16299 91.4797 3.03126C91.4432 14.673 91.4081 26.3146 91.3746 37.956C91.3674 41.8079 91.5738 45.6672 91.4201 49.5109C91.1934 55.19 86.5919 59.3873 80.8192 59.1774C80.778 58.5065 80.6981 57.806 80.6981 57.1052C80.692 41.7753 80.6665 26.4453 80.7097 11.1158C80.728 4.69171 85.2999 0.10951 91.4803 0.443095" fill="url(#paint0_linear_71_153)"/>
<path d="M102.007 29.4476C110.364 29.5519 117.427 34.6025 117.998 43.0852C118.591 51.8861 112.801 58.1457 102.21 59.5307C108.406 55.9458 108.87 50.1247 108.979 44.356C109.09 38.5352 108.293 32.8813 102.007 29.4476Z" fill="url(#paint1_linear_71_153)"/>
<path d="M98.7158 0.410828C107.056 1.38882 111.708 5.49918 112.254 12.105C112.858 19.4044 108.756 23.8966 98.1885 27.102C102.42 23.2974 102.921 18.5331 102.849 13.7814C102.779 9.0881 102.64 4.24535 98.7158 0.410828Z" fill="url(#paint2_linear_71_153)"/>
<path d="M57.8576 52.5858C57.8517 51.6047 58.0395 50.632 58.4101 49.7234C58.7807 48.8148 59.327 47.9881 60.0175 47.2904C60.7081 46.5928 61.5296 46.038 62.4349 45.6577C63.3402 45.2774 64.3116 45.0791 65.2937 45.0741C69.1318 45.0024 72.6115 48.503 72.656 52.4795C72.7006 56.4975 69.196 60.0174 65.1696 59.9988C61.2053 59.9804 57.8674 56.5963 57.8592 52.5855" fill="url(#paint3_linear_71_153)"/>
<path d="M18.3697 0.420892C18.5823 0.321059 18.8028 0.238803 19.029 0.17495C29.5123 -0.399481 29.923 -0.106321 33.5544 9.8258C39.1205 25.0443 44.7012 40.2576 50.2967 55.4657C50.6599 56.4559 50.9737 57.4641 51.4759 58.9537C47.6678 58.9537 44.1292 59.0516 40.6073 58.8566C40.0252 58.8246 39.3041 57.5885 39.0038 56.7766C36.1392 49.0335 33.4011 41.2439 30.5293 33.5028C26.85 23.5836 23.0734 13.7024 19.3615 3.79614C18.9589 2.72133 18.7087 1.5898 18.3687 0.420892" fill="url(#paint4_linear_71_153)"/>
<path d="M14.2787 51.9627C14.2332 55.9032 10.866 59.1786 6.97213 59.0682C3.08508 58.9571 -0.110384 55.533 0.00318065 51.5999C0.113686 47.7821 3.62298 44.5223 7.49099 44.6463C11.223 44.7659 14.3233 48.1072 14.2787 51.9627Z" fill="url(#paint5_linear_71_153)"/>
<path d="M142.642 0.421686C142.855 0.321851 143.076 0.239595 143.302 0.175744C153.785 -0.398687 154.196 -0.105527 157.828 9.82659C163.394 25.0451 168.975 40.2584 174.571 55.4665C174.934 56.4567 175.248 57.4649 175.75 58.9545C171.942 58.9545 168.403 59.0524 164.881 58.8574C164.299 58.8254 163.578 57.5893 163.278 56.7774C160.413 49.0343 157.675 41.2447 154.803 33.5036C151.124 23.5844 147.347 13.7032 143.636 3.79693C143.233 2.72213 142.983 1.59059 142.643 0.421686" fill="url(#paint6_linear_71_153)"/>
<path d="M138.551 51.9635C138.506 55.904 135.139 59.1794 131.245 59.069C127.358 58.9583 124.162 55.5338 124.275 51.6014C124.385 47.7828 127.894 44.5231 131.762 44.6474C135.494 44.767 138.595 48.1083 138.55 51.9639" fill="url(#paint7_linear_71_153)"/>
</g>
<defs>
<linearGradient id="paint0_linear_71_153" x1="87.5008" y1="6.50052" x2="72.1266" y2="15.5815" gradientUnits="userSpaceOnUse">
<stop offset="0.108545" stop-color="#CBB396"/>
<stop offset="0.509686" stop-color="#FFF2C8"/>
<stop offset="1" stop-color="#B4A38D"/>
</linearGradient>
<linearGradient id="paint1_linear_71_153" x1="114.501" y1="35.0005" x2="102.163" y2="40.7146" gradientUnits="userSpaceOnUse">
<stop stop-color="#CBB396"/>
<stop offset="0.421354" stop-color="#FCF4DB"/>
<stop offset="1" stop-color="#B4A38D"/>
</linearGradient>
<linearGradient id="paint2_linear_71_153" x1="110.501" y1="4.00049" x2="95.7584" y2="10.9724" gradientUnits="userSpaceOnUse">
<stop offset="0.325816" stop-color="#CBB396"/>
<stop offset="0.557415" stop-color="#FCF4DB"/>
<stop offset="1" stop-color="#B4A38D"/>
</linearGradient>
<linearGradient id="paint3_linear_71_153" x1="69.5635" y1="45.073" x2="57.7555" y2="57.0174" gradientUnits="userSpaceOnUse">
<stop stop-color="#CBB396"/>
<stop offset="0.339" stop-color="#FCF4DB"/>
<stop offset="1" stop-color="#B4A38D"/>
</linearGradient>
<linearGradient id="paint4_linear_71_153" x1="35" y1="4.50003" x2="14.0726" y2="23.236" gradientUnits="userSpaceOnUse">
<stop stop-color="#CBB396"/>
<stop offset="0.523815" stop-color="#FFF2C8"/>
<stop offset="0.856352" stop-color="#B4A38D"/>
</linearGradient>
<linearGradient id="paint5_linear_71_153" x1="11.2949" y1="44.6429" x2="-0.119462" y2="56.1678" gradientUnits="userSpaceOnUse">
<stop stop-color="#CBB396"/>
<stop offset="0.339" stop-color="#FCF4DB"/>
<stop offset="1" stop-color="#B4A38D"/>
</linearGradient>
<linearGradient id="paint6_linear_71_153" x1="168.83" y1="0.000883553" x2="128.585" y2="23.0501" gradientUnits="userSpaceOnUse">
<stop offset="0.261985" stop-color="#CBB396"/>
<stop offset="0.477105" stop-color="#FFF2C8"/>
<stop offset="0.770047" stop-color="#B4A38D"/>
</linearGradient>
<linearGradient id="paint7_linear_71_153" x1="133.501" y1="45.0005" x2="124.156" y2="56.1908" gradientUnits="userSpaceOnUse">
<stop stop-color="#F2C895"/>
<stop offset="0.339" stop-color="#FCF4DB"/>
<stop offset="1" stop-color="#B4A38D"/>
</linearGradient>
<clipPath id="clip0_71_153">
<rect width="328.989" height="60" fill="white"/>
</clipPath>
</defs>
</svg>
