<svg width="245" height="56" viewBox="0 0 245 56" fill="none" xmlns="http://www.w3.org/2000/svg">
<path fill-rule="evenodd" clip-rule="evenodd" d="M48.2043 26.703V39.9942L24.3727 55.1149L21.7673 53.4607C22.3049 48.4546 25.8352 43.5298 29.3634 38.6071C30.7962 36.6088 32.227 34.6106 33.5096 32.5434C39.1669 23.4239 41.4591 13.9811 26.4405 2.7924C31.5412 3.92295 36.1996 6.48443 39.8569 10.166C44.001 14.2961 47.0636 19.9134 48.2043 26.703ZM31.6365 0.385284H48.2065V14.9949C46.7059 12.2415 44.8116 9.71547 42.5851 7.48983C39.4823 4.38811 35.7509 1.96847 31.6365 0.385284ZM0.541016 0.385284H17.2274C17.856 3.00099 18.9143 7.05805 18.9143 7.05805C14.0569 8.98958 12.3828 12.8464 10.5351 17.2914C8.55827 22.1974 6.21109 26.9491 3.51257 31.5109L2.64692 32.9877L4.04804 33.9931L10.8272 38.8554L12.7976 40.2696L13.7352 38.0544C15.2697 34.4291 17.6401 33.6511 19.7862 32.946C22.8742 31.9323 25.6426 31.0228 26.6839 25.9479L22.9165 25.2053C22.3176 28.1214 20.5503 28.7033 18.582 29.352C16.0866 30.1697 13.3712 31.0625 11.2589 34.4833L7.70321 31.9323C10.1308 27.6792 12.2664 23.2717 14.095 18.7369C15.8559 14.4984 17.2168 12.1914 20.6709 10.3725C23.5176 9.29829 21.435 6.67424 20.9715 3.53081C31.7635 10.7563 37.8547 18.2739 30.229 30.5723C29.0332 32.5017 27.6257 34.4646 26.2183 36.4295C22.7917 41.2082 19.3629 45.9933 18.2327 51.2184L0.547365 39.9984L0.541016 0.385284Z" fill="url(#paint0_linear_71_119)"/>
<path d="M63.411 15.6311V20.4912H61.5781V8.52234H63.6544C64.6724 8.52234 65.4407 8.59326 65.9593 8.73093C66.4841 8.87068 66.9455 9.1335 67.3434 9.52148C68.0398 10.1931 68.389 11.04 68.389 12.0642C68.389 13.1593 68.0165 14.027 67.2715 14.6695C66.5265 15.3098 65.5233 15.6311 64.2597 15.6311H63.411V15.6311ZM63.411 13.9561H64.0946C65.7772 13.9561 66.6196 13.3178 66.6196 12.0412C66.6196 10.8064 65.7518 10.189 64.0163 10.189H63.411V13.9561Z" fill="#F2F2F2"/>
<path d="M77.6125 15.3912L81.3714 20.4912H79.13L75.6611 15.5914H75.3309V20.4912H73.498V8.52234H75.6463C77.2506 8.52234 78.4104 8.81854 79.1237 9.41301C79.911 10.0742 80.3026 10.9482 80.3026 12.0329C80.3026 12.8798 80.0549 13.6098 79.5639 14.2189C79.0708 14.8301 78.4189 15.2201 77.6125 15.3912ZM75.3309 14.0187H75.913C77.6485 14.0187 78.5162 13.3637 78.5162 12.0579C78.5162 10.8335 77.6718 10.2203 75.9828 10.2203H75.3309V14.0187Z" fill="#F2F2F2"/>
<path d="M93.1202 10.2203H88.2523V13.0967H92.9805V14.7946H88.2523V18.7953H93.1202V20.4933H86.4194V8.52234H93.1202V10.2203Z" fill="#F2F2F2"/>
<path d="M105.616 10.3058L104.13 11.1735C103.853 10.6979 103.588 10.3871 103.336 10.2432C103.074 10.0784 102.735 9.99496 102.322 9.99496C101.815 9.99496 101.391 10.1368 101.057 10.4205C100.72 10.7 100.553 11.0504 100.553 11.4739C100.553 12.0579 100.993 12.5272 101.874 12.8839L103.084 13.372C104.071 13.7642 104.79 14.2439 105.247 14.8092C105.705 15.3745 105.931 16.0691 105.931 16.8909C105.931 17.9923 105.559 18.9017 104.814 19.6193C104.064 20.3431 103.133 20.7039 102.022 20.7039C100.968 20.7039 100.098 20.3973 99.4102 19.782C98.7329 19.1666 98.3117 18.301 98.1445 17.185L100.001 16.7824C100.085 17.4854 100.231 17.9714 100.441 18.2405C100.818 18.7578 101.37 19.0164 102.092 19.0164C102.663 19.0164 103.137 18.8287 103.516 18.4512C103.893 18.0736 104.083 17.5959 104.083 17.0161C104.083 16.7845 104.052 16.5697 103.986 16.3757C103.92 16.1817 103.819 16.0044 103.679 15.8417C103.539 15.679 103.362 15.5267 103.139 15.3849C102.919 15.2431 102.657 15.1075 102.352 14.9782L101.18 14.4963C99.5181 13.8038 98.6864 12.7901 98.6864 11.4572C98.6864 10.5582 99.0356 9.80723 99.7319 9.20233C100.428 8.59325 101.298 8.28662 102.335 8.28662C103.736 8.28871 104.828 8.96245 105.616 10.3058Z" fill="#F2F2F2"/>
<path d="M114.941 10.2203V20.4912H113.108V10.2203H110.316V8.52234H117.726V10.2203H114.941Z" fill="#F2F2F2"/>
<path d="M124.417 8.52234V20.4912H122.584V8.52234H124.417Z" fill="#F2F2F2"/>
<path d="M136.802 14.2585H141.82V14.6528C141.82 15.5518 141.713 16.3486 141.499 17.0411C141.289 17.6815 140.936 18.2822 140.436 18.8391C139.308 20.0907 137.875 20.7164 136.133 20.7164C134.434 20.7164 132.98 20.1115 131.767 18.9017C130.556 17.6877 129.951 16.2297 129.951 14.5297C129.951 12.7942 130.567 11.3216 131.799 10.1118C133.031 8.8978 134.531 8.2908 136.299 8.2908C137.247 8.2908 138.134 8.4827 138.957 8.86442C139.744 9.24614 140.517 9.86773 141.277 10.725L139.971 11.9578C138.974 10.6499 137.761 9.99706 136.328 9.99706C135.043 9.99706 133.966 10.433 133.096 11.307C132.226 12.1643 131.79 13.2406 131.79 14.5318C131.79 15.8647 132.275 16.9639 133.247 17.8275C134.155 18.6285 135.137 19.029 136.197 19.029C137.099 19.029 137.909 18.7286 138.627 18.1299C139.344 17.525 139.746 16.8012 139.831 15.9585H136.802V14.2585V14.2585Z" fill="#F2F2F2"/>
<path d="M154.047 10.2203H149.18V13.0967H153.908V14.7946H149.18V18.7953H154.047V20.4933H147.347V8.52234H154.047V10.2203Z" fill="#F2F2F2"/>
<path d="M168.467 8.52233L171.629 16.5217L174.933 7.94037L178.095 16.5217L181.454 8.52233H183.443L178.017 21.2504L174.895 12.7692L171.638 21.2567L166.478 8.52025H168.467V8.52233Z" fill="#F2F2F2"/>
<path d="M187.018 14.4525C187.018 12.7671 187.645 11.3216 188.898 10.1118C190.146 8.90197 191.645 8.29706 193.397 8.29706C195.128 8.29706 196.612 8.90614 197.848 10.1264C199.091 11.3466 199.713 12.8109 199.713 14.5214C199.713 16.2422 199.088 17.7023 197.842 18.9017C196.589 20.1053 195.076 20.7081 193.304 20.7081C191.736 20.7081 190.328 20.172 189.08 19.1041C187.706 17.9193 187.018 16.3695 187.018 14.4525ZM188.866 14.4755C188.866 15.7979 189.317 16.8868 190.218 17.7399C191.116 18.593 192.151 19.0185 193.325 19.0185C194.599 19.0185 195.675 18.5847 196.551 17.7169C197.427 16.8388 197.865 15.7687 197.865 14.5068C197.865 13.2302 197.433 12.1601 196.568 11.2966C195.708 10.4288 194.644 9.99497 193.374 9.99497C192.11 9.99497 191.044 10.4288 190.172 11.2966C189.302 12.156 188.866 13.2156 188.866 14.4755Z" fill="#F2F2F2"/>
<path d="M204.634 14.4525C204.634 12.7671 205.26 11.3216 206.513 10.1118C207.762 8.90197 209.26 8.29706 211.013 8.29706C212.744 8.29706 214.228 8.90614 215.464 10.1264C216.706 11.3466 217.328 12.8109 217.328 14.5214C217.328 16.2422 216.704 17.7023 215.458 18.9017C214.205 20.1053 212.691 20.7081 210.92 20.7081C209.351 20.7081 207.944 20.172 206.695 19.1041C205.322 17.9193 204.634 16.3695 204.634 14.4525ZM206.484 14.4755C206.484 15.7979 206.934 16.8868 207.836 17.7399C208.733 18.593 209.768 19.0185 210.943 19.0185C212.217 19.0185 213.292 18.5847 214.169 17.7169C215.045 16.8388 215.483 15.7687 215.483 14.5068C215.483 13.2302 215.051 12.1601 214.186 11.2966C213.326 10.4288 212.262 9.99497 210.992 9.99497C209.728 9.99497 208.661 10.4288 207.792 11.2966C206.917 12.156 206.484 13.2156 206.484 14.4755Z" fill="#F2F2F2"/>
<path d="M222.857 20.4912V8.52234H225.405C226.626 8.52234 227.592 8.64123 228.301 8.87903C229.06 9.11056 229.75 9.50688 230.368 10.0659C231.621 11.1923 232.248 12.6733 232.248 14.5088C232.248 16.3486 231.596 17.8379 230.29 18.9747C229.634 19.5442 228.948 19.9384 228.229 20.1616C227.558 20.3827 226.605 20.4953 225.373 20.4953H222.857V20.4912ZM224.69 18.7933H225.515C226.339 18.7933 227.022 18.7077 227.568 18.5367C228.114 18.3552 228.607 18.0695 229.048 17.6773C229.949 16.8659 230.4 15.8084 230.4 14.5068C230.4 13.1947 229.954 12.1288 229.062 11.3133C228.26 10.5853 227.077 10.2203 225.515 10.2203H224.69V18.7933V18.7933Z" fill="#F2F2F2"/>
<path d="M244.64 10.3058L243.154 11.1735C242.877 10.6979 242.61 10.3871 242.36 10.2432C242.098 10.0784 241.759 9.99496 241.346 9.99496C240.838 9.99496 240.415 10.1368 240.081 10.4205C239.744 10.7 239.577 11.0504 239.577 11.4739C239.577 12.0579 240.017 12.5272 240.898 12.8839L242.108 13.372C243.095 13.7642 243.816 14.2439 244.271 14.8092C244.729 15.3745 244.955 16.0691 244.955 16.8909C244.955 17.9923 244.583 18.9017 243.838 19.6193C243.088 20.3431 242.157 20.7039 241.046 20.7039C239.992 20.7039 239.122 20.3973 238.434 19.782C237.757 19.1666 237.336 18.301 237.168 17.185L239.025 16.7824C239.109 17.4854 239.255 17.9714 239.465 18.2405C239.842 18.7578 240.394 19.0164 241.116 19.0164C241.687 19.0164 242.161 18.8287 242.54 18.4512C242.917 18.0736 243.107 17.5959 243.107 17.0161C243.107 16.7845 243.073 16.5697 243.01 16.3757C242.944 16.1817 242.843 16.0044 242.703 15.8417C242.563 15.679 242.386 15.5267 242.165 15.3849C241.945 15.2431 241.683 15.1075 241.378 14.9782L240.206 14.4963C238.544 13.8038 237.712 12.7901 237.712 11.4572C237.712 10.5582 238.062 9.80723 238.758 9.20233C239.454 8.59325 240.324 8.28662 241.361 8.28662C242.76 8.28871 243.854 8.96245 244.64 10.3058Z" fill="#F2F2F2"/>
<path d="M64.3615 28.2048H61.9614V29.6232H64.2916V30.4596H61.9614V32.4329H64.3615V33.2693H61.0576V27.3683H64.3615V28.2048Z" fill="white"/>
<path d="M77.996 33.3778H76.8594L76.3895 32.9043C75.8901 33.2193 75.3355 33.3778 74.7218 33.3778C73.9281 33.3778 73.2233 33.1129 72.6074 32.5831C71.9386 31.999 71.6021 31.2543 71.6021 30.347C71.6021 29.4584 71.9195 28.7158 72.5524 28.1213C73.1683 27.5456 73.8942 27.2578 74.7323 27.2578C75.4922 27.2578 76.1737 27.5102 76.7769 28.015C77.5007 28.622 77.8626 29.4125 77.8626 30.3887C77.8626 31.1542 77.5769 31.8321 77.0054 32.4266L77.996 33.3778ZM75.5112 30.9352L76.3811 31.7883C76.7642 31.3962 76.9547 30.9102 76.9547 30.3324C76.9547 29.6983 76.7409 29.1664 76.3155 28.7388C75.8879 28.3112 75.3588 28.0963 74.726 28.0963C74.0847 28.0963 73.5577 28.3112 73.1429 28.7388C72.7259 29.1643 72.5185 29.7024 72.5185 30.3553C72.5185 30.9915 72.7323 31.513 73.1619 31.9197C73.6085 32.3369 74.1207 32.5476 74.6942 32.5476C75.0837 32.5476 75.4371 32.46 75.7525 32.2848L74.345 30.9394H75.5112V30.9352Z" fill="white"/>
<path d="M86.2586 27.3683V30.9227C86.2586 31.4296 86.3432 31.8009 86.5104 32.0345C86.7623 32.3724 87.1136 32.5434 87.5687 32.5434C88.0258 32.5434 88.3814 32.3745 88.6311 32.0345C88.7983 31.8071 88.883 31.4358 88.883 30.9227V27.3683H89.7867V31.1668C89.7867 31.7883 89.5899 32.3015 89.1962 32.7041C88.7539 33.1525 88.21 33.3757 87.5665 33.3757C86.9231 33.3757 86.3813 33.1525 85.9411 32.7041C85.5474 32.3015 85.3506 31.7883 85.3506 31.1668V27.3683H86.2586Z" fill="white"/>
<path d="M100.883 28.2048H98.4833V29.6232H100.814V30.4596H98.4833V32.4329H100.883V33.2693H97.5796V27.3683H100.883V28.2048Z" fill="white"/>
<path d="M111.811 28.2465L111.079 28.6741C110.941 28.4405 110.812 28.2861 110.687 28.2152C110.558 28.1338 110.391 28.0921 110.188 28.0921C109.938 28.0921 109.728 28.163 109.563 28.3028C109.398 28.4405 109.316 28.6136 109.316 28.8222C109.316 29.11 109.534 29.3416 109.968 29.5168L110.564 29.7588C111.051 29.9527 111.407 30.1884 111.631 30.468C111.856 30.7475 111.968 31.0895 111.968 31.4942C111.968 32.0365 111.784 32.485 111.417 32.8396C111.047 33.1963 110.588 33.3757 110.04 33.3757C109.519 33.3757 109.091 33.2234 108.753 32.921C108.418 32.6185 108.211 32.1909 108.128 31.6402L109.043 31.4421C109.085 31.7883 109.157 32.0282 109.261 32.1617C109.447 32.4162 109.718 32.5434 110.076 32.5434C110.357 32.5434 110.592 32.4495 110.778 32.2639C110.965 32.0783 111.058 31.8426 111.058 31.5568C111.058 31.4421 111.041 31.3378 111.009 31.2418C110.977 31.1459 110.926 31.0583 110.859 30.979C110.791 30.8997 110.702 30.8226 110.594 30.7537C110.486 30.6828 110.357 30.6161 110.207 30.5535L109.629 30.3157C108.81 29.9736 108.399 29.4751 108.399 28.818C108.399 28.3737 108.571 28.0045 108.916 27.7062C109.259 27.4059 109.688 27.2557 110.2 27.2557C110.884 27.2536 111.422 27.5853 111.811 28.2465Z" fill="white"/>
<path d="M121.174 28.2048V33.2693H120.271V28.2048H118.895V27.3683H122.548V28.2048H121.174Z" fill="white"/>
<path d="M131.738 30.7558L133.592 33.2714H132.487L130.777 30.8559H130.614V33.2714H129.71V27.3704H130.768C131.56 27.3704 132.131 27.5164 132.483 27.8105C132.87 28.1359 133.065 28.5677 133.065 29.1017C133.065 29.5189 132.944 29.8797 132.701 30.1801C132.457 30.4805 132.135 30.6703 131.738 30.7558ZM130.614 30.0779H130.902C131.757 30.0779 132.186 29.7567 132.186 29.1101C132.186 28.5072 131.769 28.2048 130.938 28.2048H130.616V30.0779H130.614Z" fill="white"/>
<path d="M141.749 27.3683V33.2693H140.845V27.3683H141.749Z" fill="white"/>
<path d="M153.061 31.8363H150.498L149.831 33.2693H148.858L151.821 26.997L154.68 33.2693H153.692L153.061 31.8363ZM152.693 30.9999L151.804 28.9932L150.873 30.9999H152.693Z" fill="white"/>
<path d="M161.781 33.2693V26.9658L166.148 31.4692V27.3683H167.051V33.6302L162.685 29.1393V33.2714H161.781V33.2693Z" fill="white"/>
<path d="M188.075 27.6854V28.7409C187.552 28.3112 187.012 28.0942 186.453 28.0942C185.837 28.0942 185.319 28.3112 184.898 28.7471C184.474 29.181 184.261 29.7108 184.261 30.3366C184.261 30.9561 184.472 31.4775 184.898 31.9031C185.323 32.3286 185.842 32.5413 186.458 32.5413C186.775 32.5413 187.046 32.4913 187.268 32.3891C187.393 32.339 187.52 32.2702 187.653 32.1826C187.787 32.095 187.926 31.9907 188.075 31.8697V32.9439C187.558 33.2318 187.014 33.3757 186.445 33.3757C185.59 33.3757 184.858 33.0816 184.254 32.4934C183.651 31.8989 183.351 31.1834 183.351 30.3449C183.351 29.594 183.602 28.9223 184.106 28.3341C184.726 27.6124 185.531 27.2515 186.515 27.2515C187.052 27.2536 187.573 27.3975 188.075 27.6854Z" fill="white"/>
<path d="M198.873 28.2048H196.473V29.6232H198.803V30.4596H196.473V32.4329H198.873V33.2693H195.569V27.3683H198.873V28.2048Z" fill="white"/>
<path d="M206.414 33.2693V26.9658L210.78 31.4692V27.3683H211.684V33.6302L207.318 29.1393V33.2714H206.414V33.2693Z" fill="white"/>
<path d="M221.128 28.2048V33.2693H220.224V28.2048H218.848V27.3683H222.501V28.2048H221.128Z" fill="white"/>
<path d="M231.691 30.7558L233.545 33.2714H232.44L230.73 30.8559H230.567V33.2714H229.664V27.3704H230.722C231.513 27.3704 232.085 27.5164 232.436 27.8105C232.824 28.1359 233.018 28.5677 233.018 29.1017C233.018 29.5189 232.898 29.8797 232.654 30.1801C232.409 30.4784 232.089 30.6703 231.691 30.7558ZM230.565 30.0779H230.853C231.708 30.0779 232.138 29.7567 232.138 29.1101C232.138 28.5072 231.721 28.2048 230.889 28.2048H230.567V30.0779H230.565Z" fill="white"/>
<path d="M244.104 28.2048H241.704V29.6232H244.034V30.4596H241.704V32.4329H244.104V33.2693H240.8V27.3683H244.104V28.2048Z" fill="white"/>
<defs>
<linearGradient id="paint0_linear_71_119" x1="44.5859" y1="-4.98324" x2="11.474" y2="26.2928" gradientUnits="userSpaceOnUse">
<stop stop-color="#CCAE8C"/>
<stop offset="0.625" stop-color="#F5EFDC"/>
<stop offset="1" stop-color="#B7A38A"/>
</linearGradient>
</defs>
</svg>
