<svg width="91" height="32" viewBox="0 0 91 32" fill="none" xmlns="http://www.w3.org/2000/svg">
<path d="M47.4475 0.724833C47.4475 1.16374 47.4487 1.61353 47.4475 2.06227C47.4287 8.07894 47.4105 14.0955 47.3932 20.1121C47.3895 22.1028 47.4962 24.0974 47.4168 26.0839C47.2995 29.0189 44.9214 31.1882 41.938 31.0797C41.9167 30.733 41.8754 30.371 41.8754 30.0088C41.8722 22.086 41.8591 14.1631 41.8814 6.2405C41.8909 2.92043 44.2537 0.552255 47.4479 0.724658" fill="url(#paint0_linear_71_187)"/>
<path d="M52.8887 15.7146C57.2075 15.7685 60.858 18.3788 61.1531 22.7628C61.4592 27.3112 58.4669 30.5463 52.9934 31.2621C56.1957 29.4094 56.4354 26.401 56.4919 23.4195C56.5489 20.4113 56.137 17.4892 52.8887 15.7146Z" fill="url(#paint1_linear_71_187)"/>
<path d="M51.1876 0.707764C55.4978 1.21321 57.9023 3.33752 58.1845 6.75152C58.4966 10.524 56.3764 12.8457 50.915 14.5023C53.1018 12.536 53.361 10.0737 53.3239 7.61793C53.2873 5.19235 53.2157 2.68952 51.1876 0.707764" fill="url(#paint2_linear_71_187)"/>
<path d="M30.0709 27.6731C30.0679 27.166 30.1649 26.6633 30.3564 26.1937C30.548 25.7241 30.8303 25.2968 31.1872 24.9363C31.5441 24.5758 31.9686 24.289 32.4365 24.0925C32.9044 23.8959 33.4065 23.7934 33.914 23.7908C35.8976 23.7538 37.696 25.563 37.719 27.6181C37.742 29.6947 35.9308 31.5139 33.8499 31.5042C31.8011 31.4947 30.076 29.7458 30.0717 27.6729" fill="url(#paint3_linear_71_187)"/>
<path d="M9.66313 0.713084C9.77304 0.661488 9.887 0.618976 10.0039 0.585976C15.4219 0.289099 15.6341 0.440609 17.5109 5.57372C20.3875 13.439 23.2718 21.3015 26.1637 29.1613C26.3513 29.6731 26.5135 30.1942 26.7731 30.964C24.805 30.964 22.9762 31.0146 21.156 30.9138C20.8551 30.8973 20.4824 30.2584 20.3273 29.8388C18.8468 25.837 17.4316 21.8112 15.9475 17.8105C14.0459 12.684 12.0941 7.57725 10.1757 2.45748C9.96766 1.902 9.83832 1.3172 9.6626 0.713084" fill="url(#paint4_linear_71_187)"/>
<path d="M7.54883 27.3512C7.52528 29.3877 5.78506 31.0805 3.77264 31.0234C1.76374 30.966 0.112259 29.1963 0.170951 27.1637C0.228062 25.1905 2.04174 23.5058 4.0408 23.5699C5.96958 23.6317 7.57185 25.3585 7.54883 27.3512Z" fill="url(#paint5_linear_71_187)"/>
<path d="M73.8892 0.713328C73.9991 0.661731 74.113 0.61922 74.2299 0.58622C79.6479 0.289343 79.8602 0.440854 81.7376 5.57397C84.6143 13.4392 87.4985 21.3017 90.3904 29.1616C90.5781 29.6733 90.7403 30.1944 90.9998 30.9643C89.0317 30.9643 87.2029 31.0148 85.3827 30.914C85.0819 30.8975 84.7092 30.2587 84.554 29.8391C83.0735 25.8373 81.6584 21.8115 80.1742 17.8107C78.2727 12.6843 76.3209 7.5775 74.4025 2.45772C74.1944 1.90224 74.0651 1.31744 73.8893 0.713328" fill="url(#paint6_linear_71_187)"/>
<path d="M71.7751 27.3512C71.7515 29.3878 70.0113 31.0806 67.9989 31.0235C65.99 30.9663 64.3385 29.1964 64.3965 27.1641C64.4536 25.1906 66.2673 23.5059 68.2664 23.5701C70.1951 23.6319 71.7974 25.3588 71.7744 27.3514" fill="url(#paint7_linear_71_187)"/>
<defs>
<linearGradient id="paint0_linear_71_187" x1="45.3912" y1="3.85526" x2="37.4455" y2="8.54849" gradientUnits="userSpaceOnUse">
<stop offset="0.108545" stop-color="#CBB396"/>
<stop offset="0.509686" stop-color="#FFF2C8"/>
<stop offset="1" stop-color="#B4A38D"/>
</linearGradient>
<linearGradient id="paint1_linear_71_187" x1="59.3456" y1="18.5844" x2="52.9693" y2="21.5376" gradientUnits="userSpaceOnUse">
<stop stop-color="#CBB396"/>
<stop offset="0.421354" stop-color="#FCF4DB"/>
<stop offset="1" stop-color="#B4A38D"/>
</linearGradient>
<linearGradient id="paint2_linear_71_187" x1="57.2783" y1="2.56297" x2="49.6591" y2="6.16619" gradientUnits="userSpaceOnUse">
<stop offset="0.325816" stop-color="#CBB396"/>
<stop offset="0.557415" stop-color="#FCF4DB"/>
<stop offset="1" stop-color="#B4A38D"/>
</linearGradient>
<linearGradient id="paint3_linear_71_187" x1="36.1207" y1="23.7903" x2="30.0181" y2="29.9634" gradientUnits="userSpaceOnUse">
<stop stop-color="#CBB396"/>
<stop offset="0.339" stop-color="#FCF4DB"/>
<stop offset="1" stop-color="#B4A38D"/>
</linearGradient>
<linearGradient id="paint4_linear_71_187" x1="18.258" y1="2.82126" x2="7.4423" y2="12.5044" gradientUnits="userSpaceOnUse">
<stop stop-color="#CBB396"/>
<stop offset="0.523815" stop-color="#FFF2C8"/>
<stop offset="0.856352" stop-color="#B4A38D"/>
</linearGradient>
<linearGradient id="paint5_linear_71_187" x1="6.00673" y1="23.5681" x2="0.107568" y2="29.5244" gradientUnits="userSpaceOnUse">
<stop stop-color="#CBB396"/>
<stop offset="0.339" stop-color="#FCF4DB"/>
<stop offset="1" stop-color="#B4A38D"/>
</linearGradient>
<linearGradient id="paint6_linear_71_187" x1="87.4237" y1="0.495849" x2="66.6238" y2="12.4081" gradientUnits="userSpaceOnUse">
<stop offset="0.261985" stop-color="#CBB396"/>
<stop offset="0.477105" stop-color="#FFF2C8"/>
<stop offset="0.770047" stop-color="#B4A38D"/>
</linearGradient>
<linearGradient id="paint7_linear_71_187" x1="69.1649" y1="23.7526" x2="64.3354" y2="29.536" gradientUnits="userSpaceOnUse">
<stop stop-color="#F2C895"/>
<stop offset="0.339" stop-color="#FCF4DB"/>
<stop offset="1" stop-color="#B4A38D"/>
</linearGradient>
</defs>
</svg>
