<svg width="261" height="59" viewBox="0 0 261 59" fill="none" xmlns="http://www.w3.org/2000/svg">
<path fill-rule="evenodd" clip-rule="evenodd" d="M51.6524 28.1512V42.2885L26.295 58.3715L23.5228 56.6121C24.0948 51.2873 27.8511 46.0491 31.6052 40.8131C33.1298 38.6876 34.6521 36.5621 36.0168 34.3634C42.0364 24.6635 44.4753 14.6196 28.4952 2.71877C33.9225 3.92129 38.8791 6.64579 42.7705 10.5617C47.18 14.9547 50.4386 20.9295 51.6524 28.1512ZM34.0238 0.158447H51.6547V15.6979C50.058 12.7693 48.0425 10.0825 45.6734 7.71518C42.3719 4.41605 38.4017 1.84241 34.0238 0.158447ZM0.9375 0.158447H18.6922C19.3611 2.94064 20.4871 7.25592 20.4871 7.25592C15.3187 9.3104 13.5374 13.4127 11.5714 18.1406C9.46805 23.3589 6.97059 28.413 4.0993 33.2652L3.17823 34.836L4.66905 35.9054L11.8822 41.0771L13.9788 42.5813L14.9764 40.2251C16.6091 36.3691 19.1314 35.5415 21.4149 34.7916C24.7005 33.7134 27.6462 32.746 28.7541 27.3481L24.7456 26.5582C24.1083 29.6599 22.2279 30.2789 20.1335 30.9689C17.4784 31.8386 14.5891 32.7882 12.3416 36.4268L8.55825 33.7134C11.1413 29.1895 13.4135 24.5015 15.3593 19.6782C17.2329 15.1699 18.681 12.716 22.3562 10.7814C25.3852 9.63876 23.1692 6.84769 22.676 3.50418C34.1589 11.1896 40.6402 19.1856 32.5262 32.2668C31.2538 34.3191 29.7563 36.4068 28.2587 38.4968C24.6127 43.5797 20.9645 48.6693 19.7619 54.2271L0.944256 42.2929L0.9375 0.158447Z" fill="url(#paint0_linear_71_81)"/>
<path d="M67.8333 16.3747V21.5441H65.8831V8.81348H68.0923C69.1755 8.81348 69.9929 8.88891 70.5447 9.03534C71.1032 9.18399 71.5941 9.46354 72.0175 9.87621C72.7584 10.5906 73.13 11.4914 73.13 12.5808C73.13 13.7455 72.7336 14.6685 71.9409 15.3519C71.1482 16.033 70.0808 16.3747 68.7363 16.3747H67.8333V16.3747ZM67.8333 14.5931H68.5607C70.351 14.5931 71.2473 13.9142 71.2473 12.5563C71.2473 11.2429 70.324 10.5862 68.4774 10.5862H67.8333V14.5931Z" fill="#F2F2F2"/>
<path d="M82.944 16.1195L86.9436 21.5441H84.5587L80.8677 16.3325H80.5164V21.5441H78.5662V8.81348H80.8519C82.5589 8.81348 83.793 9.12853 84.552 9.76084C85.3897 10.4642 85.8063 11.3938 85.8063 12.5475C85.8063 13.4482 85.5428 14.2248 85.0204 14.8726C84.4957 15.5227 83.802 15.9376 82.944 16.1195ZM80.5164 14.6596H81.1357C82.9823 14.6596 83.9056 13.963 83.9056 12.5741C83.9056 11.2717 83.0071 10.6195 81.21 10.6195H80.5164V14.6596Z" fill="#F2F2F2"/>
<path d="M99.4443 10.6195H94.2647V13.679H99.2956V15.485H94.2647V19.7404H99.4443V21.5463H92.3145V8.81348H99.4443V10.6195Z" fill="#F2F2F2"/>
<path d="M112.74 10.7102L111.159 11.6331C110.864 11.1273 110.583 10.7967 110.315 10.6436C110.035 10.4683 109.675 10.3796 109.236 10.3796C108.695 10.3796 108.245 10.5304 107.889 10.8322C107.531 11.1295 107.353 11.5022 107.353 11.9526C107.353 12.5738 107.822 13.073 108.759 13.4524L110.047 13.9716C111.096 14.3887 111.862 14.899 112.348 15.5002C112.835 16.1015 113.076 16.8403 113.076 17.7144C113.076 18.8859 112.679 19.8532 111.887 20.6164C111.089 21.3863 110.098 21.7701 108.916 21.7701C107.795 21.7701 106.869 21.444 106.137 20.7895C105.417 20.135 104.968 19.2143 104.791 18.0273L106.766 17.5991C106.856 18.3468 107.011 18.8637 107.234 19.1499C107.635 19.7001 108.223 19.9753 108.99 19.9753C109.599 19.9753 110.103 19.7756 110.506 19.374C110.907 18.9724 111.11 18.4644 111.11 17.8476C111.11 17.6013 111.076 17.3728 111.006 17.1664C110.936 16.9601 110.828 16.7715 110.679 16.5985C110.531 16.4254 110.342 16.2634 110.105 16.1126C109.871 15.9617 109.592 15.8175 109.267 15.6799L108.02 15.1674C106.252 14.4308 105.367 13.3526 105.367 11.9349C105.367 10.9786 105.739 10.1799 106.48 9.53649C107.22 8.88864 108.146 8.5625 109.249 8.5625C110.74 8.56472 111.902 9.28134 112.74 10.7102Z" fill="#F2F2F2"/>
<path d="M122.663 10.6195V21.5441H120.712V10.6195H117.742V8.81348H125.626V10.6195H122.663Z" fill="#F2F2F2"/>
<path d="M132.745 8.81348V21.5441H130.794V8.81348H132.745Z" fill="#F2F2F2"/>
<path d="M145.923 14.9147H151.263V15.334C151.263 16.2903 151.148 17.1378 150.921 17.8744C150.698 18.5555 150.322 19.1945 149.79 19.7869C148.59 21.1181 147.065 21.7837 145.212 21.7837C143.404 21.7837 141.856 21.1403 140.566 19.8534C139.278 18.5622 138.634 17.0113 138.634 15.2031C138.634 13.3572 139.289 11.7908 140.6 10.504C141.91 9.21277 143.507 8.56714 145.388 8.56714C146.396 8.56714 147.34 8.77125 148.216 9.17727C149.054 9.58328 149.876 10.2444 150.684 11.1563L149.295 12.4675C148.234 11.0764 146.944 10.382 145.419 10.382C144.052 10.382 142.906 10.8457 141.98 11.7753C141.055 12.6872 140.591 13.832 140.591 15.2054C140.591 16.6231 141.106 17.7923 142.14 18.7108C143.106 19.5628 144.151 19.9888 145.279 19.9888C146.239 19.9888 147.101 19.6693 147.865 19.0325C148.628 18.3891 149.056 17.6192 149.146 16.7229H145.923V14.9147V14.9147Z" fill="#F2F2F2"/>
<path d="M164.272 10.6195H159.093V13.679H164.124V15.485H159.093V19.7404H164.272V21.5463H157.143V8.81348H164.272V10.6195Z" fill="#F2F2F2"/>
<path d="M179.616 8.81334L182.98 17.3219L186.495 8.19434L189.86 17.3219L193.434 8.81334H195.551L189.777 22.3516L186.455 13.3305L182.989 22.3582L177.499 8.81112H179.616V8.81334Z" fill="#F2F2F2"/>
<path d="M199.354 15.121C199.354 13.3283 200.021 11.7908 201.354 10.504C202.682 9.21714 204.277 8.57373 206.142 8.57373C207.984 8.57373 209.562 9.22158 210.877 10.5195C212.199 11.8174 212.861 13.3749 212.861 15.1942C212.861 17.0246 212.197 18.5776 210.871 19.8534C209.538 21.1335 207.927 21.7747 206.042 21.7747C204.374 21.7747 202.876 21.2045 201.547 20.0686C200.086 18.8084 199.354 17.1599 199.354 15.121ZM201.32 15.1454C201.32 16.552 201.8 17.7101 202.759 18.6176C203.714 19.525 204.815 19.9776 206.065 19.9776C207.421 19.9776 208.565 19.5161 209.497 18.5932C210.429 17.6591 210.895 16.521 210.895 15.1787C210.895 13.8208 210.436 12.6827 209.515 11.7642C208.601 10.8412 207.468 10.3797 206.117 10.3797C204.772 10.3797 203.637 10.8412 202.709 11.7642C201.784 12.6782 201.32 13.8053 201.32 15.1454Z" fill="#F2F2F2"/>
<path d="M218.097 15.121C218.097 13.3283 218.764 11.7908 220.097 10.504C221.426 9.21714 223.02 8.57373 224.885 8.57373C226.727 8.57373 228.306 9.22158 229.621 10.5195C230.943 11.8174 231.605 13.3749 231.605 15.1942C231.605 17.0246 230.941 18.5776 229.614 19.8534C228.281 21.1335 226.671 21.7747 224.786 21.7747C223.117 21.7747 221.62 21.2045 220.291 20.0686C218.829 18.8084 218.097 17.1599 218.097 15.121ZM220.066 15.1454C220.066 16.552 220.545 17.7101 221.505 18.6176C222.46 19.525 223.561 19.9776 224.811 19.9776C226.166 19.9776 227.31 19.5161 228.243 18.5932C229.175 17.6591 229.641 16.521 229.641 15.1787C229.641 13.8208 229.182 12.6827 228.261 11.7642C227.346 10.8412 226.214 10.3797 224.862 10.3797C223.518 10.3797 222.383 10.8412 221.457 11.7642C220.527 12.6782 220.066 13.8053 220.066 15.1454Z" fill="#F2F2F2"/>
<path d="M237.487 21.5441V8.81348H240.199C241.498 8.81348 242.525 8.93994 243.279 9.19287C244.088 9.43914 244.822 9.86068 245.48 10.4553C246.813 11.6534 247.479 13.2286 247.479 15.181C247.479 17.1379 246.786 18.722 245.396 19.9312C244.698 20.5368 243.969 20.9562 243.203 21.1936C242.489 21.4287 241.476 21.5486 240.165 21.5486H237.487V21.5441ZM239.438 19.7381H240.316C241.192 19.7381 241.919 19.6472 242.5 19.4652C243.081 19.2722 243.606 18.9683 244.074 18.5512C245.034 17.6881 245.513 16.5632 245.513 15.1788C245.513 13.7833 245.038 12.6495 244.09 11.782C243.237 11.0077 241.978 10.6195 240.316 10.6195H239.438V19.7381V19.7381Z" fill="#F2F2F2"/>
<path d="M260.665 10.7102L259.084 11.6331C258.789 11.1273 258.505 10.7967 258.239 10.6436C257.96 10.4683 257.6 10.3796 257.161 10.3796C256.62 10.3796 256.17 10.5304 255.814 10.8322C255.456 11.1295 255.278 11.5022 255.278 11.9526C255.278 12.5738 255.747 13.073 256.683 13.4524L257.971 13.9716C259.021 14.3887 259.789 14.899 260.273 15.5002C260.759 16.1015 261 16.8403 261 17.7144C261 18.8859 260.604 19.8532 259.811 20.6164C259.014 21.3863 258.023 21.7701 256.841 21.7701C255.719 21.7701 254.794 21.444 254.062 20.7895C253.341 20.135 252.893 19.2143 252.715 18.0273L254.69 17.5991C254.78 18.3468 254.936 18.8637 255.159 19.1499C255.56 19.7001 256.147 19.9753 256.915 19.9753C257.523 19.9753 258.028 19.7756 258.431 19.374C258.832 18.9724 259.034 18.4644 259.034 17.8476C259.034 17.6013 258.998 17.3728 258.931 17.1664C258.861 16.9601 258.753 16.7715 258.604 16.5985C258.456 16.4254 258.266 16.2634 258.032 16.1126C257.798 15.9617 257.519 15.8175 257.195 15.6799L255.947 15.1674C254.179 14.4308 253.294 13.3526 253.294 11.9349C253.294 10.9786 253.666 10.1799 254.407 9.53649C255.147 8.88864 256.073 8.5625 257.177 8.5625C258.665 8.56472 259.829 9.28134 260.665 10.7102Z" fill="#F2F2F2"/>
<path d="M68.8442 29.7486H66.2905V31.2573H68.7699V32.1469H66.2905V34.2458H68.8442V35.1355H65.3289V28.8589H68.8442V29.7486Z" fill="white"/>
<path d="M83.3516 35.251H82.1423L81.6424 34.7474C81.1109 35.0824 80.5209 35.251 79.8678 35.251C79.0233 35.251 78.2734 34.9692 77.618 34.4057C76.9064 33.7845 76.5483 32.9924 76.5483 32.0273C76.5483 31.0821 76.8861 30.2923 77.5595 29.66C78.2148 29.0476 78.9873 28.7415 79.879 28.7415C80.6875 28.7415 81.4126 29.0099 82.0545 29.5468C82.8246 30.1925 83.2097 31.0333 83.2097 32.0717C83.2097 32.8859 82.9057 33.607 82.2977 34.2393L83.3516 35.251ZM80.7078 32.6529L81.6333 33.5604C82.041 33.1433 82.2436 32.6263 82.2436 32.0118C82.2436 31.3373 82.0162 30.7715 81.5635 30.3167C81.1086 29.8619 80.5456 29.6334 79.8723 29.6334C79.1899 29.6334 78.6292 29.8619 78.1878 30.3167C77.7441 30.7693 77.5235 31.3417 77.5235 32.0362C77.5235 32.7128 77.7509 33.2675 78.2081 33.7001C78.6832 34.1439 79.2282 34.368 79.8385 34.368C80.2529 34.368 80.629 34.2748 80.9645 34.0884L79.4669 32.6574H80.7078V32.6529Z" fill="white"/>
<path d="M92.1434 28.8589V32.6395C92.1434 33.1786 92.2334 33.5735 92.4113 33.822C92.6793 34.1814 93.0532 34.3634 93.5373 34.3634C94.0238 34.3634 94.4021 34.1837 94.6678 33.822C94.8457 33.5802 94.9358 33.1853 94.9358 32.6395V28.8589H95.8974V32.8991C95.8974 33.5602 95.688 34.106 95.2691 34.5342C94.7985 35.0112 94.2197 35.2486 93.5351 35.2486C92.8505 35.2486 92.274 35.0112 91.8056 34.5342C91.3867 34.106 91.1772 33.5602 91.1772 32.8991V28.8589H92.1434Z" fill="white"/>
<path d="M107.705 29.7486H105.151V31.2573H107.63V32.1469H105.151V34.2458H107.705V35.1355H104.189V28.8589H107.705V29.7486Z" fill="white"/>
<path d="M119.332 29.7931L118.553 30.248C118.406 29.9995 118.269 29.8353 118.136 29.7598C117.999 29.6733 117.821 29.6289 117.605 29.6289C117.339 29.6289 117.116 29.7044 116.94 29.853C116.765 29.9995 116.677 30.1836 116.677 30.4055C116.677 30.7117 116.909 30.9579 117.37 31.1443L118.005 31.4017C118.523 31.608 118.902 31.8587 119.14 32.156C119.379 32.4533 119.498 32.8172 119.498 33.2476C119.498 33.8244 119.303 34.3014 118.913 34.6786C118.519 35.058 118.03 35.2488 117.447 35.2488C116.893 35.2488 116.438 35.0868 116.078 34.7651C115.722 34.4434 115.501 33.9886 115.413 33.4029L116.386 33.1921C116.431 33.5604 116.508 33.8155 116.618 33.9575C116.816 34.2282 117.105 34.3636 117.485 34.3636C117.785 34.3636 118.035 34.2637 118.233 34.0663C118.431 33.8688 118.53 33.6181 118.53 33.3141C118.53 33.1921 118.512 33.0812 118.478 32.9791C118.445 32.8771 118.39 32.7839 118.318 32.6996C118.246 32.6153 118.152 32.5332 118.037 32.4599C117.922 32.3845 117.785 32.3135 117.625 32.247L117.01 31.994C116.138 31.6302 115.702 31.0999 115.702 30.401C115.702 29.9285 115.884 29.5358 116.251 29.2185C116.616 28.899 117.073 28.7393 117.618 28.7393C118.345 28.737 118.917 29.0898 119.332 29.7931Z" fill="white"/>
<path d="M129.295 29.7486V35.1355H128.333V29.7486H126.869V28.8589H130.756V29.7486H129.295Z" fill="white"/>
<path d="M140.534 32.462L142.507 35.1377H141.331L139.512 32.5685H139.338V35.1377H138.377V28.8611H139.503C140.345 28.8611 140.953 29.0164 141.327 29.3292C141.739 29.6753 141.946 30.1346 141.946 30.7026C141.946 31.1463 141.818 31.5301 141.559 31.8496C141.3 32.1691 140.957 32.371 140.534 32.462ZM139.338 31.7409H139.645C140.554 31.7409 141.012 31.3992 141.012 30.7114C141.012 30.0702 140.568 29.7485 139.683 29.7485H139.341V31.7409H139.338Z" fill="white"/>
<path d="M151.186 28.8589V35.1355H150.225V28.8589H151.186Z" fill="white"/>
<path d="M163.223 33.6114H160.496L159.786 35.1356H158.75L161.903 28.4641L164.946 35.1356H163.894L163.223 33.6114ZM162.831 32.7217L161.885 30.5874L160.894 32.7217H162.831Z" fill="white"/>
<path d="M172.501 35.1357V28.4309L177.147 33.221V28.8591H178.109V35.5195L173.463 30.7427V35.1379H172.501V35.1357Z" fill="white"/>
<path d="M200.478 29.1963V30.319C199.922 29.8619 199.347 29.6312 198.753 29.6312C198.098 29.6312 197.546 29.8619 197.098 30.3256C196.647 30.7871 196.42 31.3507 196.42 32.0163C196.42 32.6752 196.645 33.2299 197.098 33.6825C197.55 34.1351 198.102 34.3614 198.757 34.3614C199.095 34.3614 199.383 34.3081 199.62 34.1994C199.753 34.1462 199.888 34.0729 200.03 33.9798C200.172 33.8866 200.32 33.7756 200.478 33.647V34.7896C199.928 35.0957 199.35 35.2488 198.744 35.2488C197.834 35.2488 197.055 34.936 196.413 34.3103C195.771 33.678 195.451 32.917 195.451 32.0251C195.451 31.2264 195.719 30.512 196.255 29.8863C196.915 29.1187 197.771 28.7349 198.818 28.7349C199.39 28.7371 199.944 28.8902 200.478 29.1963Z" fill="white"/>
<path d="M211.968 29.7486H209.414V31.2573H211.893V32.1469H209.414V34.2458H211.968V35.1355H208.452V28.8589H211.968V29.7486Z" fill="white"/>
<path d="M219.991 35.1357V28.4309L224.637 33.221V28.8591H225.599V35.5195L220.953 30.7427V35.1379H219.991V35.1357Z" fill="white"/>
<path d="M235.647 29.7486V35.1355H234.686V29.7486H233.222V28.8589H237.109V29.7486H235.647Z" fill="white"/>
<path d="M246.887 32.462L248.86 35.1377H247.684L245.865 32.5685H245.691V35.1377H244.729V28.8611H245.855C246.698 28.8611 247.306 29.0164 247.68 29.3292C248.092 29.6753 248.299 30.1346 248.299 30.7026C248.299 31.1463 248.171 31.5301 247.912 31.8496C247.65 32.1669 247.31 32.371 246.887 32.462ZM245.689 31.7409H245.995C246.905 31.7409 247.362 31.3992 247.362 30.7114C247.362 30.0702 246.918 29.7485 246.033 29.7485H245.691V31.7409H245.689Z" fill="white"/>
<path d="M260.095 29.7486H257.541V31.2573H260.021V32.1469H257.541V34.2458H260.095V35.1355H256.58V28.8589H260.095V29.7486Z" fill="white"/>
<defs>
<linearGradient id="paint0_linear_71_81" x1="47.8023" y1="-5.55178" x2="12.5822" y2="27.7273" gradientUnits="userSpaceOnUse">
<stop stop-color="#CCAE8C"/>
<stop offset="0.625" stop-color="#F5EFDC"/>
<stop offset="1" stop-color="#B7A38A"/>
</linearGradient>
</defs>
</svg>
